Format : AVI
Format/Info : Audio Video Interleave
File size : 700 MiB
Duration : 1h 33mn
Overall bit rate : 1 047 Kbps
Writing application : VirtualDubMod 1.5.4.1 (build 2178/release)
Writing library : VirtualDubMod build 2178/release

Video
ID : 0
Format : MPEG-4 Visual
Format settings, BVOP : Yes
Format settings, QPel : No
Format settings, GMC : No warppoints
Format settings, Matrix : Default (H.263)
Muxing mode : Packed bitstream
Codec ID : DX50
Codec ID/Hint : DivX 5
Duration : 1h 33mn
Bit rate : 912 Kbps
Width : 672 pixels
Height : 288 pixels
Display aspect ratio : 2.35:1
Frame rate : 25.000 fps
Resolution : 24 bits
Colorimetry : 4:2:0
Scan type : Progressive
Bits/(Pixel*Frame) : 0.188
Stream size : 610 MiB (87%)
Writing library : DivX 6.8.4

Audio
ID : 1
Format : MPEG Audio
Format version : Version 1
Format profile : Layer 3
Codec ID : 55
Codec ID/Hint : MP3
Duration : 1h 33mn
Bit rate mode : Constant
Bit rate : 128 Kbps
Channel(s) : 2 channels
Sampling rate : 48.0 KHz
Resolution : 16 bits
Stream size : 85.6 MiB (12%)
Alignment : Aligned on interleaves
Interleave, duration : 80 ms (2.00 video frames)
Interleave, preload duration : 504 ms
Writing library : LAME3.98r
Encoding settings : -m j -V 4 -q 2 -lowpass 17 -b 128
Language : English

Starring
Dominic West
Michael Fassbender
Olga Kurylenko

It is A.D. 117 and the Roman garrisons are struggling to contain the Picts, the Celtic inhabitants of the Scottish Highlands. The Picts under their king, Gorlacon, are perfecting guerilla warfare and are eliminating Roman outposts one by one. Centurion Quintus Dias is the only survivor of a Pictish raid and is taken prisoner. In the meantime, Agricola, the Roman governor ofwants to obtain favour with the central administration, hoping to secure a transfer back to the comforts of Rome. He dispatches the Ninth Legion to the front under General Titus Flavius Virilus, with orders to eradicate the Pictish threat, providing him with a mute female Brigantian scout, Etain.
 
http://www.imdb.com/title/tt1020558/

screens
 
http://img715.imageshack.us/img715/4774/centuriondivxviceavisna.jpg 
http://img12.imageshack.us/img12/4774/centuriondivxviceavisna.jpg 
http://img528.imageshack.us/img528/4774/centuriondivxviceavisna.jpg 
http://img197.imageshack.us/img197/4774/centuriondivxviceavisna.jpg